<?xml version="1.0" encoding="UTF-8" standalone="no"?>
<svg width="116px" height="66px" viewBox="0 0 116 66" version="1.1" xmlns="http://www.w3.org/2000/svg" xmlns:xlink="http://www.w3.org/1999/xlink">
    <!-- Generator: Sketch 49.1 (51147) - http://www.bohemiancoding.com/sketch -->
    <title>Mobile</title>
    <desc>Created with Sketch.</desc>
    <defs></defs>
    <g id="Mobile" stroke="none" stroke-width="1" fill="none" fill-rule="evenodd">
        <g id="noun_989639_cc" fill="#FFFFFF" fill-rule="nonzero">
            <path d="M115.673508,27.7788086 L115.089218,25.878418 C114.291366,23.2834473 111.872909,21.7246094 109.687607,22.3964844 L105.048996,23.8227539 L103.328842,12.8891601 C103.22728,12.2407226 102.995834,11.5854492 102.653061,10.949707 C102.619858,10.8793945 102.581772,10.8081054 102.521225,10.7026367 L102.444077,10.5668945 C102.358139,10.4194336 102.271225,10.2739257 102.172592,10.1333007 C98.4440766,4.1567382 86.3317719,0.1440429 71.9997368,0.1440429 C57.6657524,0.1440429 45.5524712,4.1577148 41.8249321,10.1362304 C41.7282524,10.2749023 41.6374321,10.4262695 41.5114555,10.6411132 L41.4489555,10.7534179 C41.4157524,10.8129882 41.3835258,10.8725585 41.3776664,10.887207 C41.003643,11.5854492 40.7721976,12.2407226 40.6706351,12.8881836 L38.9509085,23.8227539 L34.3124207,22.3964844 C32.1270569,21.7246094 29.7086609,23.2834473 28.9107483,25.878418 L28.32652,27.7788086 C28.088605,28.5524902 28.4239931,29.342041 29.0755434,29.5424805 L34.531476,31.7875977 C33.4946718,33.3889161 32.8863954,35.2937012 32.8863954,37.3432618 L32.8863954,50.7175294 C32.8863954,53.435547 34.9075746,55.6604005 37.5247011,56.0266114 L37.5247011,62.260254 C37.5247011,64.2460938 39.1345024,65.8559571 41.1203422,65.8559571 L44.8336601,65.8559571 C46.8194999,65.8559571 48.4293022,64.2460938 48.4293022,62.260254 L48.4293022,56.1018067 L95.5707245,56.1018067 L95.5707245,62.260254 C95.5707245,64.2460938 97.1805267,65.8559571 99.1663056,65.8559571 L102.879685,65.8559571 C104.865463,65.8559571 106.475266,64.2460938 106.475266,62.260254 L106.475266,56.0266114 C109.092514,55.6604005 111.113571,53.4355469 111.113571,50.7175294 L111.113571,37.3432617 C111.113571,35.2937012 110.505234,33.3891601 109.468491,31.7878418 L114.924484,29.5424805 C115.576035,29.342041 115.911362,28.5524902 115.673508,27.7788086 Z M48.0509453,42.4145508 C47.8475151,43.3039551 47.3196221,44.1091309 46.5574761,44.7614746 C45.3699151,45.7780762 43.6241875,46.423584 41.6725884,46.423584 C40.4303399,46.423584 39.2739678,46.1586914 38.288128,45.7072754 C36.4349795,44.8586426 35.1950503,43.3393555 35.1950503,41.6005859 C35.1950503,39.9995117 36.2475405,38.5844726 37.8607607,37.7072754 C38.2875176,37.4753418 38.7513237,37.2797852 39.248272,37.1303711 C39.7333184,36.984375 40.2479668,36.8833008 40.7831231,36.8286133 C41.074627,36.798584 41.3700372,36.777832 41.6725884,36.777832 C44.1918755,36.777832 46.3700982,37.85083 47.4412652,39.4145508 C47.7578546,39.876709 47.9748345,40.3813477 48.0771295,40.9145508 C48.1202203,41.1391602 48.1501275,41.3671875 48.1501275,41.600586 C48.1501274,41.8786621 48.1116142,42.1494141 48.0509453,42.4145508 Z M43.1301079,27.0996094 C42.5559502,27.0996094 41.996685,27.1584473 41.4482231,27.2492676 L43.6335258,13.3540039 C43.6833305,13.0395508 43.8063774,12.7055664 44.0436821,12.2612305 L44.1491509,12.0747071 C44.1940728,11.9975587 44.2370415,11.9184571 44.2907525,11.8452149 L44.3532525,11.7514649 C46.9504815,7.5334473 57.0530206,3.2727051 71.4000665,3.1550294 L71.4000665,4.9833985 L66.8024102,4.9833985 C66.1432305,4.9833985 65.6061211,5.5205079 65.6061211,6.1796876 L65.6061211,8.6201173 C65.6061211,9.279297 66.1432305,9.8164064 66.8024102,9.8164064 L77.197918,9.8164064 C77.8570977,9.8164064 78.3942071,9.279297 78.3942071,8.6201173 L78.3942071,6.1796876 C78.3942071,5.5205079 77.8570977,4.9833985 77.197918,4.9833985 L72.5992852,4.9833985 L72.5992852,3.1550294 C86.946457,3.2727052 97.048996,7.5334474 99.646225,11.7514649 L99.7126313,11.8500977 C99.7643891,11.9213868 99.8054047,11.9975586 99.8483735,12.0717774 L99.9772798,12.3032227 C100.1931,12.7055665 100.316147,13.0395508 100.365952,13.3549805 L102.551865,27.2492676 C102.003403,27.1584473 101.444077,27.0996094 100.869858,27.0996094 L97.3101656,27.0996094 L93.4008638,19.7607422 C93.0324556,19.0690918 92.2839815,18.7158203 91.5503389,18.8103027 C91.4424898,18.7973632 91.3366548,18.7774658 91.2253267,18.7774658 L83.5755426,18.7774658 C83.4593927,18.7774658 83.348858,18.7976074 83.2363702,18.8116455 C82.5000421,18.7138672 81.74815,19.0667725 81.3787042,19.7607422 L77.4694024,27.0996094 L43.1301079,27.0996094 Z M87.4003754,24.6315918 C85.5925713,24.6315918 84.0279961,25.6318359 83.1903496,27.0996094 L81.6207085,27.0996094 L82.2542534,25.9101563 C83.3904839,24.2856446 85.2718926,23.21875 87.4003754,23.21875 C89.4849091,23.21875 91.3301239,24.2437744 92.4729462,25.8117676 L93.1588593,27.0996094 L91.6096039,27.0996094 C90.7719574,25.6320801 89.2080536,24.6315918 87.4003754,24.6315918 Z M85.5466118,44.737793 L58.4538383,44.737793 L58.4538383,43.737793 L85.5466118,43.737793 L85.5466118,44.737793 Z M85.5466118,39.4145508 L85.5466118,39.5561524 L58.4538383,39.5561524 L58.4538383,39.4145508 L58.4538383,38.5561524 L85.5466118,38.5561524 L85.5466117,39.4145508 Z M105.711899,45.7072754 C104.726059,46.1586914 103.569626,46.423584 102.327377,46.423584 C100.375778,46.423584 98.6301117,45.7780762 97.4425506,44.7614746 C96.6804046,44.1091308 96.1525115,43.3039551 95.9490814,42.4145508 C95.8884125,42.1494141 95.8498993,41.8786621 95.8498993,41.600586 C95.8498993,41.3671876 95.8798065,41.1391602 95.9228973,40.9145508 C96.0251922,40.3813477 96.2421722,39.876709 96.5587616,39.4145508 C97.6299286,37.8508301 99.8081512,36.777832 102.327377,36.777832 C102.62999,36.777832 102.925339,36.798584 103.216904,36.8286133 C103.751938,36.8833008 104.266647,36.984375 104.751694,37.1303711 C105.248764,37.2800293 105.712692,37.4753418 106.139572,37.7075195 C107.752609,38.5847168 108.804916,39.9995117 108.804916,41.6005859 C108.804916,43.3393555 107.565048,44.8586426 105.711899,45.7072754 Z M82.2358818,12.8145752 C82.2358818,9.9622803 84.5481377,7.6500244 87.4004364,7.6500244 C90.2527313,7.6500244 92.5649872,9.9622803 92.5649872,12.8145752 C92.5649872,15.6667481 90.2527313,17.9790039 87.4004364,17.9790039 C84.5481377,17.9790039 82.2358818,15.666748 82.2358818,12.8145752 Z" id="Shape"></path>
            <path d="M15.2425509,40.5630345 C15.1399302,39.7906207 15.1128957,38.990069 15.1368957,38.1795862 C13.8781371,36.7064828 12.9708268,35.1908966 12.3391026,33.8915862 C11.0232406,31.1828966 10.5973095,28.9368276 10.4979992,28.3131034 C10.2966199,26.9348966 11.2378613,25.672 12.5928957,25.4742069 C12.7120682,25.4565517 12.8331716,25.4482759 12.9528957,25.4482759 C14.1760682,25.4482759 15.2312406,26.3613793 15.4075164,27.5729655 L15.4080682,27.5751724 L15.4133095,27.606069 C15.4210337,27.6510345 15.4345509,27.7246897 15.454413,27.8228966 C15.4927578,28.0124138 15.5606199,28.3191724 15.6682061,28.7106207 C15.806413,29.2143448 16.0279302,29.9175172 16.3562061,30.7166897 C16.4877923,30.168 16.6152406,29.6422069 16.7291716,29.1525517 C17.4709647,26.9307586 16.5890337,24.2965517 14.4949647,23.8546207 C14.120344,23.7754483 13.7134475,23.7470345 13.2922061,23.7691034 C10.9101371,23.7704828 8.03344747,23.8027586 3.87620609,24.5103448 C-0.445449078,25.246069 0.0141371285,29.337931 0.0141371285,29.337931 C0.0141371285,29.337931 0.0257233354,29.5961379 0.0494474733,30.0358621 C0.805585404,29.7337931 2.83593023,29.0074483 4.77275782,29.062069 C3.05137851,29.5586207 0.991240577,30.929931 0.138826784,31.5310345 C0.348481956,34.752 0.833723335,40.4626207 1.66930954,41.2 C2.64613713,42.062069 4.1357923,43.2411034 7.31841299,42.2275862 C8.07786127,43.2637241 9.16613713,43.6990345 10.2999302,43.8656552 C10.7360682,45.3828966 11.1882061,47.5903448 11.1840682,50.2091034 C11.1835164,52.6747586 10.7945509,55.504 9.63344747,58.5404138 C9.06903368,60.0171034 9.80806816,61.6717241 11.2842061,62.2366897 C11.620482,62.3652414 11.966413,62.4262069 12.3059992,62.4262069 C13.4582751,62.4262069 14.544344,61.7257931 14.9802061,60.585931 C16.4171716,56.8325517 16.9095854,53.28 16.9090337,50.2091034 C16.9026889,45.8 15.9148268,42.3870345 15.2425509,40.5668966 C15.2428268,40.5657931 15.2425509,40.5644138 15.2425509,40.5630345 Z" id="Shape"></path>
            <path d="M22.876482,38.6902069 C19.4869647,37.096 17.4866889,34.3737931 16.3076544,31.9591724 C15.7222751,30.7583448 15.3537233,29.649931 15.1366199,28.8571034 C15.0273785,28.4609655 14.956482,28.1437241 14.9139992,27.9335172 C14.892482,27.8286897 14.878413,27.7503448 14.8701371,27.7023448 C14.8654475,27.6783448 14.8635164,27.6617931 14.8618613,27.6532414 L14.8618613,27.6526897 C14.7076544,26.5975172 13.7275164,25.8664828 12.6726199,26.0204138 C11.6171716,26.1743448 10.8861371,27.1547586 11.040344,28.2102069 L11.040344,28.2096552 C11.0615854,28.3387586 11.4116544,30.7188966 12.8356544,33.6502069 C14.254413,36.5691034 16.8061371,40.0995862 21.232344,42.1845517 C21.4979992,42.3095172 21.7779992,42.3685517 22.0533095,42.3685517 C22.7782751,42.3685517 23.4728957,41.9588966 23.8022751,41.2593103 C24.2555164,40.2946207 23.8419992,39.144 22.876482,38.6902069 Z" id="Shape"></path>
            <circle id="Oval" cx="17.9868268" cy="17.7682759" r="5.76827586"></circle>
        </g>
        <path d="M115.673508,27.7788086 L115.089218,25.878418 C114.291366,23.2834473 111.872909,21.7246094 109.687607,22.3964844 L105.048996,23.8227539 L103.328842,12.8891601 C103.22728,12.2407226 102.995834,11.5854492 102.653061,10.949707 C102.619858,10.8793945 102.581772,10.8081054 102.521225,10.7026367 L102.444077,10.5668945 C102.358139,10.4194336 102.271225,10.2739257 102.172592,10.1333007 C98.4440766,4.1567382 86.3317719,0.1440429 71.9997368,0.1440429 C57.6657524,0.1440429 45.5524712,4.1577148 41.8249321,10.1362304 C41.7282524,10.2749023 41.6374321,10.4262695 41.5114555,10.6411132 L41.4489555,10.7534179 C41.4157524,10.8129882 41.3835258,10.8725585 41.3776664,10.887207 C41.003643,11.5854492 40.7721976,12.2407226 40.6706351,12.8881836 L38.9509085,23.8227539 L34.3124207,22.3964844 C32.1270569,21.7246094 29.7086609,23.2834473 28.9107483,25.878418 L28.32652,27.7788086 C28.088605,28.5524902 28.4239931,29.342041 29.0755434,29.5424805 L34.531476,31.7875977 C33.4946718,33.3889161 32.8863954,35.2937012 32.8863954,37.3432618 L32.8863954,50.7175294 C32.8863954,53.435547 34.9075746,55.6604005 37.5247011,56.0266114 L37.5247011,62.260254 C37.5247011,64.2460938 39.1345024,65.8559571 41.1203422,65.8559571 L44.8336601,65.8559571 C46.8194999,65.8559571 48.4293022,64.2460938 48.4293022,62.260254 L48.4293022,56.1018067 L95.5707245,56.1018067 L95.5707245,62.260254 C95.5707245,64.2460938 97.1805267,65.8559571 99.1663056,65.8559571 L102.879685,65.8559571 C104.865463,65.8559571 106.475266,64.2460938 106.475266,62.260254 L106.475266,56.0266114 C109.092514,55.6604005 111.113571,53.4355469 111.113571,50.7175294 L111.113571,37.3432617 C111.113571,35.2937012 110.505234,33.3891601 109.468491,31.7878418 L114.924484,29.5424805 C115.576035,29.342041 115.911362,28.5524902 115.673508,27.7788086 Z M48.0509453,42.4145508 C47.8475151,43.3039551 47.3196221,44.1091309 46.5574761,44.7614746 C45.3699151,45.7780762 43.6241875,46.423584 41.6725884,46.423584 C40.4303399,46.423584 39.2739678,46.1586914 38.288128,45.7072754 C36.4349795,44.8586426 35.1950503,43.3393555 35.1950503,41.6005859 C35.1950503,39.9995117 36.2475405,38.5844726 37.8607607,37.7072754 C38.2875176,37.4753418 38.7513237,37.2797852 39.248272,37.1303711 C39.7333184,36.984375 40.2479668,36.8833008 40.7831231,36.8286133 C41.074627,36.798584 41.3700372,36.777832 41.6725884,36.777832 C44.1918755,36.777832 46.3700982,37.85083 47.4412652,39.4145508 C47.7578546,39.876709 47.9748345,40.3813477 48.0771295,40.9145508 C48.1202203,41.1391602 48.1501275,41.3671875 48.1501275,41.600586 C48.1501274,41.8786621 48.1116142,42.1494141 48.0509453,42.4145508 Z M43.1301079,27.0996094 C42.5559502,27.0996094 41.996685,27.1584473 41.4482231,27.2492676 L43.6335258,13.3540039 C43.6833305,13.0395508 43.8063774,12.7055664 44.0436821,12.2612305 L44.1491509,12.0747071 C44.1940728,11.9975587 44.2370415,11.9184571 44.2907525,11.8452149 L44.3532525,11.7514649 C46.9504815,7.5334473 57.0530206,3.2727051 71.4000665,3.1550294 L71.4000665,4.9833985 L66.8024102,4.9833985 C66.1432305,4.9833985 65.6061211,5.5205079 65.6061211,6.1796876 L65.6061211,8.6201173 C65.6061211,9.279297 66.1432305,9.8164064 66.8024102,9.8164064 L77.197918,9.8164064 C77.8570977,9.8164064 78.3942071,9.279297 78.3942071,8.6201173 L78.3942071,6.1796876 C78.3942071,5.5205079 77.8570977,4.9833985 77.197918,4.9833985 L72.5992852,4.9833985 L72.5992852,3.1550294 C86.946457,3.2727052 97.048996,7.5334474 99.646225,11.7514649 L99.7126313,11.8500977 C99.7643891,11.9213868 99.8054047,11.9975586 99.8483735,12.0717774 L99.9772798,12.3032227 C100.1931,12.7055665 100.316147,13.0395508 100.365952,13.3549805 L102.551865,27.2492676 C102.003403,27.1584473 101.444077,27.0996094 100.869858,27.0996094 L97.3101656,27.0996094 L93.4008638,19.7607422 C93.0324556,19.0690918 92.2839815,18.7158203 91.5503389,18.8103027 C91.4424898,18.7973632 91.3366548,18.7774658 91.2253267,18.7774658 L83.5755426,18.7774658 C83.4593927,18.7774658 83.348858,18.7976074 83.2363702,18.8116455 C82.5000421,18.7138672 81.74815,19.0667725 81.3787042,19.7607422 L77.4694024,27.0996094 L43.1301079,27.0996094 Z M87.4003754,24.6315918 C85.5925713,24.6315918 84.0279961,25.6318359 83.1903496,27.0996094 L81.6207085,27.0996094 L82.2542534,25.9101563 C83.3904839,24.2856446 85.2718926,23.21875 87.4003754,23.21875 C89.4849091,23.21875 91.3301239,24.2437744 92.4729462,25.8117676 L93.1588593,27.0996094 L91.6096039,27.0996094 C90.7719574,25.6320801 89.2080536,24.6315918 87.4003754,24.6315918 Z M85.5466118,44.737793 L58.4538383,44.737793 L58.4538383,43.737793 L85.5466118,43.737793 L85.5466118,44.737793 Z M85.5466118,39.4145508 L85.5466118,39.5561524 L58.4538383,39.5561524 L58.4538383,39.4145508 L58.4538383,38.5561524 L85.5466118,38.5561524 L85.5466117,39.4145508 Z M105.711899,45.7072754 C104.726059,46.1586914 103.569626,46.423584 102.327377,46.423584 C100.375778,46.423584 98.6301117,45.7780762 97.4425506,44.7614746 C96.6804046,44.1091308 96.1525115,43.3039551 95.9490814,42.4145508 C95.8884125,42.1494141 95.8498993,41.8786621 95.8498993,41.600586 C95.8498993,41.3671876 95.8798065,41.1391602 95.9228973,40.9145508 C96.0251922,40.3813477 96.2421722,39.876709 96.5587616,39.4145508 C97.6299286,37.8508301 99.8081512,36.777832 102.327377,36.777832 C102.62999,36.777832 102.925339,36.798584 103.216904,36.8286133 C103.751938,36.8833008 104.266647,36.984375 104.751694,37.1303711 C105.248764,37.2800293 105.712692,37.4753418 106.139572,37.7075195 C107.752609,38.5847168 108.804916,39.9995117 108.804916,41.6005859 C108.804916,43.3393555 107.565048,44.8586426 105.711899,45.7072754 Z M82.2358818,12.8145752 C82.2358818,9.9622803 84.5481377,7.6500244 87.4004364,7.6500244 C90.2527313,7.6500244 92.5649872,9.9622803 92.5649872,12.8145752 C92.5649872,15.6667481 90.2527313,17.9790039 87.4004364,17.9790039 C84.5481377,17.9790039 82.2358818,15.666748 82.2358818,12.8145752 Z" id="Shape" fill="#FFFFFF" fill-rule="nonzero"></path>
        <path d="M15.2425509,40.5630345 C15.1399302,39.7906207 15.1128957,38.990069 15.1368957,38.1795862 C13.8781371,36.7064828 12.9708268,35.1908966 12.3391026,33.8915862 C11.0232406,31.1828966 10.5973095,28.9368276 10.4979992,28.3131034 C10.2966199,26.9348966 11.2378613,25.672 12.5928957,25.4742069 C12.7120682,25.4565517 12.8331716,25.4482759 12.9528957,25.4482759 C14.1760682,25.4482759 15.2312406,26.3613793 15.4075164,27.5729655 L15.4080682,27.5751724 L15.4133095,27.606069 C15.4210337,27.6510345 15.4345509,27.7246897 15.454413,27.8228966 C15.4927578,28.0124138 15.5606199,28.3191724 15.6682061,28.7106207 C15.806413,29.2143448 16.0279302,29.9175172 16.3562061,30.7166897 C16.4877923,30.168 16.6152406,29.6422069 16.7291716,29.1525517 C17.4709647,26.9307586 16.5890337,24.2965517 14.4949647,23.8546207 C14.120344,23.7754483 13.7134475,23.7470345 13.2922061,23.7691034 C10.9101371,23.7704828 8.03344747,23.8027586 3.87620609,24.5103448 C-0.445449078,25.246069 0.0141371285,29.337931 0.0141371285,29.337931 C0.0141371285,29.337931 0.0257233354,29.5961379 0.0494474733,30.0358621 C0.805585404,29.7337931 2.83593023,29.0074483 4.77275782,29.062069 C3.05137851,29.5586207 0.991240577,30.929931 0.138826784,31.5310345 C0.348481956,34.752 0.833723335,40.4626207 1.66930954,41.2 C2.64613713,42.062069 4.1357923,43.2411034 7.31841299,42.2275862 C8.07786127,43.2637241 9.16613713,43.6990345 10.2999302,43.8656552 C10.7360682,45.3828966 11.1882061,47.5903448 11.1840682,50.2091034 C11.1835164,52.6747586 10.7945509,55.504 9.63344747,58.5404138 C9.06903368,60.0171034 9.80806816,61.6717241 11.2842061,62.2366897 C11.620482,62.3652414 11.966413,62.4262069 12.3059992,62.4262069 C13.4582751,62.4262069 14.544344,61.7257931 14.9802061,60.585931 C16.4171716,56.8325517 16.9095854,53.28 16.9090337,50.2091034 C16.9026889,45.8 15.9148268,42.3870345 15.2425509,40.5668966 C15.2428268,40.5657931 15.2425509,40.5644138 15.2425509,40.5630345 Z" id="Shape" fill="#FFFFFF" fill-rule="nonzero"></path>
        <path d="M22.876482,38.6902069 C19.4869647,37.096 17.4866889,34.3737931 16.3076544,31.9591724 C15.7222751,30.7583448 15.3537233,29.649931 15.1366199,28.8571034 C15.0273785,28.4609655 14.956482,28.1437241 14.9139992,27.9335172 C14.892482,27.8286897 14.878413,27.7503448 14.8701371,27.7023448 C14.8654475,27.6783448 14.8635164,27.6617931 14.8618613,27.6532414 L14.8618613,27.6526897 C14.7076544,26.5975172 13.7275164,25.8664828 12.6726199,26.0204138 C11.6171716,26.1743448 10.8861371,27.1547586 11.040344,28.2102069 L11.040344,28.2096552 C11.0615854,28.3387586 11.4116544,30.7188966 12.8356544,33.6502069 C14.254413,36.5691034 16.8061371,40.0995862 21.232344,42.1845517 C21.4979992,42.3095172 21.7779992,42.3685517 22.0533095,42.3685517 C22.7782751,42.3685517 23.4728957,41.9588966 23.8022751,41.2593103 C24.2555164,40.2946207 23.8419992,39.144 22.876482,38.6902069 Z" id="Shape" fill="#FFFFFF" fill-rule="nonzero"></path>
        <circle id="Oval" fill="#FFFFFF" fill-rule="nonzero" cx="17.9868268" cy="17.7682759" r="5.76827586"></circle>
    </g>
</svg>