<?xml version="1.0" encoding="UTF-8" standalone="no"?>
<svg width="172px" height="181px" viewBox="0 0 172 181" version="1.1" xmlns="http://www.w3.org/2000/svg" xmlns:xlink="http://www.w3.org/1999/xlink">
    <!-- Generator: Sketch 50.2 (55047) - http://www.bohemiancoding.com/sketch -->
    <title>Group 4</title>
    <desc>Created with Sketch.</desc>
    <defs></defs>
    <g id="Page-1" stroke="none" stroke-width="1" fill="none" fill-rule="evenodd">
        <g id="Group-4" transform="translate(3.000000, 4.000000)">
            <path d="M83.6542804,67 C90.1522308,67.5464701 94.5753176,69.5205092 97.7662873,73.8153598 C100.21452,77.109023 98.8943945,80.379748 94.9086826,80.8654993 C89.0747952,81.5765851 84.2049993,79.4473755 80.501981,74.9703683 C79.5112202,73.7708326 78.5884659,71.1329335 79.1925233,70.2572319 C80.3499665,68.5786915 82.6248493,67.6908462 83.6542804,67" id="Fill-24" fill="#FEFEFE"></path>
            <path d="M84.3504158,116.561313 C100.004027,117.404867 114.50761,104.12971 114.536691,86.9739415 C114.564451,70.6144984 100.847382,57.4311749 84.7800243,57.2711226 C68.0517305,57.1058227 54.4390898,70.7876697 54.31219,86.7824035 C54.1866122,102.678745 67.4106225,117.202834 84.3504158,116.561313 M35.0062453,86.7981464 C34.9454392,60.3449137 57.2784714,37.7631098 84.596284,38.0018763 C112.803717,38.2498262 133.957639,60.2058519 133.999939,86.9909963 C134.042239,114.045081 112.17054,135.782019 84.6134684,135.998483 C57.0418563,136.216259 34.5700275,112.957513 35.0062453,86.7981464" id="Fill-4" fill="#FEFEFE"></path>
            <path d="M17,113 C35.7317481,122.716252 54.191436,131.143709 75,134.451707 C72.8922069,135.380593 70.8611834,136.584704 68.6604589,137.190729 C55.6150381,140.787185 42.5372933,144.269845 29.4528144,147.722072 C27.3073101,148.287078 25.0540591,148.439246 22.8762307,148.905012 C20.2943526,149.456787 20.0788594,147.489189 19.7906372,145.983388 C19.2748003,143.292001 18.979844,140.549009 18.7683912,137.813956 C18.1528887,129.846973 17.6249303,121.874698 17,113" id="Fill-6" stroke-opacity="0.127009737" stroke="#95989A" stroke-width="6" fill="#919799"></path>
            <path d="M112,147.913428 C121.295571,130.566625 128.892607,113.281685 131.65637,94 C132.46324,94.3580189 133.05415,94.4383099 133.136295,94.6857641 C135.50391,101.805338 138.046413,108.878843 140.084125,116.09187 C142.035718,123.003476 143.493119,130.055921 145.084337,137.063614 C145.566604,139.191984 145.944203,141.378268 145.99985,143.546125 C146.015748,144.152914 144.767683,145.249347 144.00056,145.345433 C136.469769,146.295762 128.92573,147.163168 121.368441,147.869992 C118.545057,148.134558 115.675301,147.913428 112,147.913428" id="Fill-8" stroke-opacity="0.127009737" stroke="#95989A" stroke-width="6" fill="#95989A"></path>
            <path d="M21.8636114,62.1765656 C27.4089311,79.9272965 34.1799301,97.1313279 45,113 C41.7991641,111.552162 38.4427508,110.356747 35.4259021,108.612017 C24.0917503,102.059471 12.8739434,95.3185875 1.59525835,88.6744884 C0.284349647,87.9028312 -0.685641618,87.1952608 0.615797151,85.6584859 C7.28262694,77.7797353 13.9318697,69.8879058 20.5878767,62 C21.0140235,62.0588552 21.4388175,62.1177104 21.8636114,62.1765656" id="Fill-10" stroke-opacity="0.127009737" stroke="#95989A" stroke-width="6" fill="#919799"></path>
            <path d="M60,44 C60.7950316,37.7012777 80.9699685,4.83786216 86.4395162,0 C94.2820311,6.59828445 102.230999,13.2546338 110.134152,19.9637694 C111.764641,21.3480895 110.877978,22.088417 109.246142,22.6664267 C99.4470413,26.1463619 89.5307068,29.3557675 79.9323849,33.3068202 C74.027591,35.7376282 68.6200288,39.3284146 62.9887797,42.3966169 C62.1317626,42.8637754 61.268008,43.319057 60,44" id="Fill-12" stroke-opacity="0.127009737" stroke="#95989A" stroke-width="6" fill="#919799"></path>
            <path d="M110,128 C103.258637,143.539443 94.4604508,157.721185 84.1429905,172 C75.9503802,165.274462 67.9751901,158.728639 60,152.182816 C60.140056,151.841751 60.280112,151.501997 60.4201681,151.160933 C77.9685207,145.622563 94.8832866,138.803888 110,128" id="Fill-14" stroke-opacity="0.127009737" stroke="#95989A" stroke-width="6" fill="#919799"></path>
            <path d="M58,23.0823995 C54.2282804,31.5567172 50.2652123,39.4896351 47.1483893,47.7409445 C44.0760346,55.8780629 41.8607052,64.3362595 39.1616146,73 C38.3301923,70.9929247 37.1996197,68.9321125 36.6107517,66.727554 C34.1245699,57.4082226 31.766403,48.0539623 29.4297964,38.6956716 C28.6226295,35.460707 28.1954644,32.1236421 27.2602827,28.931667 C26.5407049,26.4705145 27.3034035,25.2399382 29.6696556,24.9645363 C35.5515978,24.282077 41.4375826,23.5808097 47.3410852,23.1294193 C50.7476259,22.8687951 54.1892022,23.0823995 58,23.0823995" id="Fill-16" stroke-opacity="0.127009737" stroke="#95989A" stroke-width="6" fill="#919799"></path>
            <path d="M124.998021,56 C134.122597,61.1347078 143.293747,66.1911825 152.350458,71.4380246 C156.431699,73.8006682 160.256117,76.5831636 164.253525,79.0879309 C166.149765,80.2744683 166.594217,81.6044332 165.129122,83.3359954 C159.626698,89.838481 154.11629,96.3331432 148.56463,102.7926 C148.125501,103.30242 147.33906,103.525385 146.504714,104 C141.201895,87.1342189 134.412689,71.2502649 124,57.0157281 C124.332674,56.6767175 124.665348,56.3377068 124.998021,56" id="Fill-18" stroke-opacity="0.127009737" stroke="#95989A" stroke-width="6" fill="#919799"></path>
            <path d="M142.690309,27 C144.807339,31.3582948 146.723964,49.4760792 145.730009,57 C130.458881,49.2227214 114.983313,42.3604959 98,39.2609047 C100.301295,36.1343605 125.077537,29.4904542 142.690309,27" id="Fill-20" stroke-opacity="0.127009737" stroke="#95989A" stroke-width="6" fill="#919799"></path>
            <path d="M78.3603613,108.307692 C79.7900121,107.591284 81.7416192,107.158051 81.8791102,106.421071 C82.0968041,105.244806 81.4831873,103.475569 80.5449391,102.662349 C79.0681849,101.384432 77.120397,100.255363 75.1993434,99.8935287 C73.7340467,99.6164047 71.9988605,100.626879 70.3846154,101.063742 C71.0287858,102.633305 71.2439336,104.661514 72.4227908,105.657467 C73.9517407,106.949906 76.2496212,107.421863 78.3603613,108.307692 M83.2144223,60.6153846 C81.9087455,61.4897545 79.02008,62.6111727 77.5526379,64.7311317 C76.7848948,65.8383219 77.9557672,69.1715338 79.2139415,70.6874532 C83.9128374,76.3436951 90.0945816,79.0366509 97.4998362,78.1377055 C102.55821,77.5233184 104.233636,73.3907566 101.126716,69.227152 C97.0774491,63.8011436 91.4618833,61.3047916 83.2144223,60.6153846 M84.9266731,113.65539 C68.0502873,114.279207 54.8757758,100.155941 55.0008837,84.6982943 C55.1273084,69.14497 68.6889956,55.8407034 85.3546735,56.0014415 C101.361889,56.1570768 115.027614,68.9765777 114.999958,84.8845463 C114.970986,101.566864 100.521692,114.474389 84.9266731,113.65539" id="Fill-22" fill="#4FDDD1"></path>
            <path d="M17,113 C35.7317481,122.716252 54.191436,131.143709 75,134.451707 C72.8922069,135.380593 70.8611834,136.584704 68.6604589,137.190729 C55.6150381,140.787185 42.5372933,144.269845 29.4528144,147.722072 C27.3073101,148.287078 25.0540591,148.439246 22.8762307,148.905012 C20.2943526,149.456787 20.0788594,147.489189 19.7906372,145.983388 C19.2748003,143.292001 18.979844,140.549009 18.7683912,137.813956 C18.1528887,129.846973 17.6249303,121.874698 17,113" id="Fill-6" stroke-opacity="0.127009737" stroke="#95989A" stroke-width="6" fill="#919799"></path>
            <path d="M112,147.913428 C121.295571,130.566625 128.892607,113.281685 131.65637,94 C132.46324,94.3580189 133.05415,94.4383099 133.136295,94.6857641 C135.50391,101.805338 138.046413,108.878843 140.084125,116.09187 C142.035718,123.003476 143.493119,130.055921 145.084337,137.063614 C145.566604,139.191984 145.944203,141.378268 145.99985,143.546125 C146.015748,144.152914 144.767683,145.249347 144.00056,145.345433 C136.469769,146.295762 128.92573,147.163168 121.368441,147.869992 C118.545057,148.134558 115.675301,147.913428 112,147.913428" id="Fill-8" stroke-opacity="0.127009737" stroke="#95989A" stroke-width="6" fill="#95989A"></path>
            <path d="M21.8636114,62.1765656 C27.4089311,79.9272965 34.1799301,97.1313279 45,113 C41.7991641,111.552162 38.4427508,110.356747 35.4259021,108.612017 C24.0917503,102.059471 12.8739434,95.3185875 1.59525835,88.6744884 C0.284349647,87.9028312 -0.685641618,87.1952608 0.615797151,85.6584859 C7.28262694,77.7797353 13.9318697,69.8879058 20.5878767,62 C21.0140235,62.0588552 21.4388175,62.1177104 21.8636114,62.1765656" id="Fill-10" stroke-opacity="0.127009737" stroke="#95989A" stroke-width="6" fill="#919799"></path>
            <path d="M60,44 C60.7950316,37.7012777 80.9699685,4.83786216 86.4395162,0 C94.2820311,6.59828445 102.230999,13.2546338 110.134152,19.9637694 C111.764641,21.3480895 110.877978,22.088417 109.246142,22.6664267 C99.4470413,26.1463619 89.5307068,29.3557675 79.9323849,33.3068202 C74.027591,35.7376282 68.6200288,39.3284146 62.9887797,42.3966169 C62.1317626,42.8637754 61.268008,43.319057 60,44" id="Fill-12" stroke-opacity="0.127009737" stroke="#95989A" stroke-width="6" fill="#919799"></path>
            <path d="M110,128 C103.258637,143.539443 94.4604508,157.721185 84.1429905,172 C75.9503802,165.274462 67.9751901,158.728639 60,152.182816 C60.140056,151.841751 60.280112,151.501997 60.4201681,151.160933 C77.9685207,145.622563 94.8832866,138.803888 110,128" id="Fill-14" stroke-opacity="0.127009737" stroke="#95989A" stroke-width="6" fill="#919799"></path>
            <path d="M58,23.0823995 C54.2282804,31.5567172 50.2652123,39.4896351 47.1483893,47.7409445 C44.0760346,55.8780629 41.8607052,64.3362595 39.1616146,73 C38.3301923,70.9929247 37.1996197,68.9321125 36.6107517,66.727554 C34.1245699,57.4082226 31.766403,48.0539623 29.4297964,38.6956716 C28.6226295,35.460707 28.1954644,32.1236421 27.2602827,28.931667 C26.5407049,26.4705145 27.3034035,25.2399382 29.6696556,24.9645363 C35.5515978,24.282077 41.4375826,23.5808097 47.3410852,23.1294193 C50.7476259,22.8687951 54.1892022,23.0823995 58,23.0823995" id="Fill-16" stroke-opacity="0.127009737" stroke="#95989A" stroke-width="6" fill="#919799"></path>
            <path d="M124.998021,56 C134.122597,61.1347078 143.293747,66.1911825 152.350458,71.4380246 C156.431699,73.8006682 160.256117,76.5831636 164.253525,79.0879309 C166.149765,80.2744683 166.594217,81.6044332 165.129122,83.3359954 C159.626698,89.838481 154.11629,96.3331432 148.56463,102.7926 C148.125501,103.30242 147.33906,103.525385 146.504714,104 C141.201895,87.1342189 134.412689,71.2502649 124,57.0157281 C124.332674,56.6767175 124.665348,56.3377068 124.998021,56" id="Fill-18" stroke-opacity="0.127009737" stroke="#95989A" stroke-width="6" fill="#919799"></path>
            <path d="M142.690309,27 C144.807339,31.3582948 146.723964,49.4760792 145.730009,57 C130.458881,49.2227214 114.983313,42.3604959 98,39.2609047 C100.301295,36.1343605 125.077537,29.4904542 142.690309,27" id="Fill-20" stroke-opacity="0.127009737" stroke="#95989A" stroke-width="6" fill="#919799"></path>
        </g>
    </g>
</svg>